<?xml version="1.0" encoding="UTF-8" standalone="no"?>
<!-- Created with Inkscape (http://www.inkscape.org/) -->

<svg
   width="184.31807mm"
   height="207.58412mm"
   viewBox="0 0 184.31807 207.58412"
   version="1.1"
   id="svg5"
   xml:space="preserve"
   xmlns="http://www.w3.org/2000/svg"
   xmlns:svg="http://www.w3.org/2000/svg"><defs
     id="defs2" /><g
     id="g35"
     style="display:inline;fill:#000000"
     transform="translate(-9.8865561,-7.3590178)"><path
       id="path33"
       style="fill:#000000;stroke:#000000;stroke-width:0.264583px;stroke-linecap:butt;stroke-linejoin:miter;stroke-opacity:1"
       d="m 75.774475,186.67619 15.807256,7.27636 -2.258179,20.82543 c 0,0 -6.021811,-1.50545 -13.549077,-28.10179 z m 0,-10.78908 22.330886,4.26545 -2.759996,7.02545 c 0,0 -13.04726,-1.50546 -19.57089,-11.2909 z m 0.250907,-19.31999 c 0,0 3.010908,12.79636 35.378148,11.54181 l -6.27272,4.26546 -12.294533,1.25454 -12.043625,-2.76 -7.025448,-3.0109 -0.501817,-2.50909 z m -2.509089,-19.31998 c 0,0 20.07271,20.57453 52.189047,17.81453 0,0 -38.639971,25.09088 -52.189047,-17.81453 z m -0.752726,-10.53817 c 0,0 37.887233,19.31998 80.541743,5.01818 0,0 -40.64724,38.63996 -80.541743,-5.01818 z m -25.843611,-23.08361 19.069074,3.26181 33.370877,13.04726 c 0,0 39.141783,8.02909 59.967213,-0.50182 l 7.27636,-2.00726 -9.53453,6.02181 c 0,0 -32.36725,13.04726 -67.243579,3.51272 C 54.94904,117.42535 46.919956,103.62536 46.919956,103.62536 Z m 0,-25.843616 c 0,0 66.741754,52.189046 134.487144,12.294534 l -2.00727,6.523632 -7.02544,8.78181 -8.53091,3.76363 -26.84724,4.51636 -13.54908,0.25091 -26.345432,-3.76363 -28.60361,-9.53454 L 43.90905,87.316283 36.130876,74.269022 Z m 33.119967,-11.792714 16.309078,-4.516361 18.316349,1.254546 7.02545,2.258179 1.50545,4.014541 -2.25818,3.763632 -3.51273,1.505455 -15.30544,2.509086 -9.032714,-0.250907 -9.032719,-3.010908 -3.512724,-4.014541 z M 70.505388,14.050896 50.934498,17.56362 c 0,0 -18.567255,3.512724 -33.370878,16.810893 -14.8036227,13.29817 -3.261815,26.847246 -3.261815,26.847246 0,0 16.309076,14.803623 42.152687,19.319984 25.843613,4.516358 44.410868,5.269084 44.410868,5.269084 0,0 48.1745,0.25091 68.74902,-12.545441 20.57453,-12.796353 19.06908,-11.792717 22.07998,-18.316347 3.01091,-6.52363 5.52,-14.552713 -8.02908,-29.105427 C 170.1162,11.290898 137.49805,7.5272656 137.49805,7.5272656 l 3.01091,3.7636324 c 0,0 33.62179,13.047261 35.37815,24.33816 1.75636,11.290898 3.51272,10.036353 -6.52363,24.589068 l -2.76,-11.541808 -8.5309,-10.538172 -23.33452,-8.530901 2.75999,4.767269 15.55635,11.290898 3.26182,4.51636 v 7.527265 l -3.01091,6.774539 -4.76727,4.265451 -3.0109,1.003635 v -7.527265 l -4.51636,-7.778175 -6.52363,-3.512724 -4.01454,-0.501818 6.77454,9.032719 -0.75273,9.032719 -10.53817,8.029084 -20.07271,4.26545 -23.836343,-2.509088 -13.047261,-6.272722 -2.509089,-7.527266 4.265451,-7.025448 8.530901,-3.763632 2.25818,-3.261816 -15.305441,5.269086 -5.269086,4.51636 -2.258179,5.018177 0.752726,4.265451 1.254545,3.763633 -7.025448,-3.261816 -5.269086,-5.018177 -2.759998,-5.519995 1.505453,-5.018177 4.265451,-4.767268 8.78181,-6.52363 9.534536,-6.272722 -9.032718,-0.501818 -10.036355,3.261816 -10.287263,7.276356 -4.26545,7.276357 -1.254545,6.523631 v 2.509088 l -7.276357,-7.025448 -2.258179,-8.029083 2.509088,-9.283628 7.025448,-7.527266 11.541808,-6.52363 15.556349,-5.519995 8.530901,-2.25818 z" /></g></svg>
